<?xml version="1.0" encoding="utf-8"?>
<!-- Generator: Adobe Illustrator 17.1.0, SVG Export Plug-In . SVG Version: 6.00 Build 0)  -->
<!DOCTYPE svg PUBLIC "-//W3C//DTD SVG 1.1//EN" "http://www.w3.org/Graphics/SVG/1.1/DTD/svg11.dtd">
<svg version="1.1" id="chevrons" xmlns="http://www.w3.org/2000/svg" xmlns:xlink="http://www.w3.org/1999/xlink" x="0px" y="0px"
	 width="96px" height="24px" viewBox="0 0 96 24" style="enable-background:new 0 0 96 24;" xml:space="preserve">
<style type="text/css">
	.st0{fill:#FFFFFF;}
</style>
<path id="up" class="st0" d="M72,0v24h24V0H72z M88.3,14.1L84,9.8l-4.3,4.3L79,13.4l5-5l5,5L88.3,14.1z"/>
<path id="left" class="st0" d="M48,0v24h24V0H48z M62.1,16.3L61.4,17l-5-5l5-5l0.7,0.7L57.8,12L62.1,16.3z"/>
<path id="down" class="st0" d="M24,0v24h24V0H24z M36,15.6l-5-5l0.7-0.7l4.3,4.3l4.3-4.3l0.7,0.7L36,15.6z"/>
<path id="right" class="st0" d="M0,0v24h24V0H0z M10.6,17l-0.7-0.7l4.3-4.3L9.9,7.7L10.6,7l5,5L10.6,17z"/>
</svg>
