<?xml version="1.0" encoding="utf-8"?>
<!-- Generator: Adobe Illustrator 17.1.0, SVG Export Plug-In . SVG Version: 6.00 Build 0)  -->
<!DOCTYPE svg PUBLIC "-//W3C//DTD SVG 1.1//EN" "http://www.w3.org/Graphics/SVG/1.1/DTD/svg11.dtd">
<svg version="1.1" id="chevrons" xmlns="http://www.w3.org/2000/svg" xmlns:xlink="http://www.w3.org/1999/xlink" x="0px" y="0px"
	 width="96px" height="24px" viewBox="0 0 96 24" style="enable-background:new 0 0 96 24;" xml:space="preserve">
<style type="text/css">
	.st0{fill:#FFFFFF;}
</style>
<path id="up" class="st0" d="M72,0v24h24V0H72z M87.6,14.8L84,11.2l-3.6,3.6l-2.1-2.1L84,7l5.7,5.7L87.6,14.8z"/>
<path id="left" class="st0" d="M48,0v24h24V0H48z M62.8,15.6l-2.1,2.1L55,12l5.7-5.7l2.1,2.1L59.2,12L62.8,15.6z"/>
<path id="down" class="st0" d="M24,0v24h24V0H24z M36,17l-5.7-5.7l2.1-2.1l3.6,3.6l3.6-3.6l2.1,2.1L36,17z"/>
<path id="right" class="st0" d="M0,0v24h24V0H0z M11.3,17.7l-2.1-2.1l3.6-3.6L9.2,8.4l2.1-2.1L17,12L11.3,17.7z"/>
</svg>
