<?xml version="1.0" encoding="utf-8"?>
<!-- Generator: Adobe Illustrator 17.1.0, SVG Export Plug-In . SVG Version: 6.00 Build 0)  -->
<!DOCTYPE svg PUBLIC "-//W3C//DTD SVG 1.1//EN" "http://www.w3.org/Graphics/SVG/1.1/DTD/svg11.dtd">
<svg version="1.1" id="chevrons" xmlns="http://www.w3.org/2000/svg" xmlns:xlink="http://www.w3.org/1999/xlink" x="0px" y="0px"
	 width="96px" height="24px" viewBox="0 0 96 24" style="enable-background:new 0 0 96 24;" xml:space="preserve">
<style type="text/css">
	.st0{fill:#FFFFFF;}
</style>
<path id="up" class="st0" d="M72,0v24h24V0H72z M88.2,14.2L84,10l-4.2,4.2l-0.9-0.9L84,8.2l5.1,5.1L88.2,14.2z"/>
<path id="left" class="st0" d="M48,0v24h24V0H48z M62.2,16.2l-0.9,0.9L56.2,12l5.1-5.1l0.9,0.9L58,12L62.2,16.2z"/>
<path id="down" class="st0" d="M24,0v24h24V0H24z M36,15.8l-5.1-5.1l0.9-0.9L36,14l4.2-4.2l0.9,0.9L36,15.8z"/>
<path id="right" class="st0" d="M0,0v24h24V0H0z M10.7,17.1l-0.9-0.9L14,12L9.8,7.8l0.9-0.9l5.1,5.1L10.7,17.1z"/>
</svg>
