<?xml version="1.0" encoding="utf-8"?>
<!-- Generator: Adobe Illustrator 17.1.0, SVG Export Plug-In . SVG Version: 6.00 Build 0)  -->
<!DOCTYPE svg PUBLIC "-//W3C//DTD SVG 1.1//EN" "http://www.w3.org/Graphics/SVG/1.1/DTD/svg11.dtd">
<svg version="1.1" id="chevrons" xmlns="http://www.w3.org/2000/svg" xmlns:xlink="http://www.w3.org/1999/xlink" x="0px" y="0px"
	 width="96px" height="24px" viewBox="0 0 96 24" style="enable-background:new 0 0 96 24;" xml:space="preserve">
<style type="text/css">
	.st0{fill:#FFFFFF;}
</style>
<path id="up" class="st0" d="M72,0v24h24V0H72z M87.9,14.4L84,10.5l-3.9,3.9L78.7,13L84,7.7l5.3,5.3L87.9,14.4z"/>
<path id="left" class="st0" d="M48,0v24h24V0H48z M62.4,15.9L61,17.3L55.7,12L61,6.7l1.4,1.4L58.5,12L62.4,15.9z"/>
<path id="down" class="st0" d="M24,0v24h24V0H24z M36,16.3L30.7,11l1.4-1.4l3.9,3.9l3.9-3.9l1.4,1.4L36,16.3z"/>
<path id="right" class="st0" d="M0,0v24h24V0H0z M11,17.3l-1.4-1.4l3.9-3.9L9.6,8.1L11,6.7l5.3,5.3L11,17.3z"/>
</svg>
