<?xml version="1.0" encoding="utf-8"?>
<!-- Generator: Adobe Illustrator 17.1.0, SVG Export Plug-In . SVG Version: 6.00 Build 0)  -->
<!DOCTYPE svg PUBLIC "-//W3C//DTD SVG 1.1//EN" "http://www.w3.org/Graphics/SVG/1.1/DTD/svg11.dtd">
<svg version="1.1" id="chevrons" xmlns="http://www.w3.org/2000/svg" xmlns:xlink="http://www.w3.org/1999/xlink" x="0px" y="0px"
	 width="96px" height="24px" viewBox="0 0 96 24" style="enable-background:new 0 0 96 24;" xml:space="preserve">
<style type="text/css">
	.st0{fill:#FFFFFF;}
</style>
<path id="up" class="st0" d="M72,0v24h24V0H72z M88.4,13.9L84,9.5l-4.4,4.4l-0.4-0.4L84,8.8l4.8,4.8L88.4,13.9z"/>
<path id="left" class="st0" d="M48,0v24h24V0H48z M61.9,16.4l-0.4,0.4L56.8,12l4.8-4.8L62,7.6L57.5,12L61.9,16.4z"/>
<path id="down" class="st0" d="M24,0v24h24V0H24z M36,15.2l-4.8-4.8l0.4-0.4l4.4,4.4l4.4-4.4l0.4,0.4L36,15.2z"/>
<path id="right" class="st0" d="M0,0v24h24V0H0z M10.5,16.8l-0.4-0.4l4.4-4.4l-4.4-4.4l0.4-0.4l4.8,4.8L10.5,16.8z"/>
</svg>
