<?xml version="1.0" encoding="utf-8"?>
<!-- Generator: Adobe Illustrator 17.0.2, SVG Export Plug-In . SVG Version: 6.00 Build 0)  -->
<!DOCTYPE svg PUBLIC "-//W3C//DTD SVG 1.0//EN" "http://www.w3.org/TR/2001/REC-SVG-20010904/DTD/svg10.dtd">
<svg version="1.0" id="standardized_icons" xmlns="http://www.w3.org/2000/svg" xmlns:xlink="http://www.w3.org/1999/xlink" x="0px"
	 y="0px" width="24px" height="24px" viewBox="0 0 24 24" enable-background="new 0 0 24 24" xml:space="preserve">
<g id="link">
	<text transform="matrix(1 0 0 1 0 20.665)" fill="#58595B" font-family="'Avenir-Book'" font-size="15"> </text>
	<path fill="#FFFFFF" d="M13.227,4.467l-2.081,2.081c0.908-0.068,1.827,0.068,2.684,0.408l0.943-0.943
		c0.928-0.928,2.439-0.928,3.367,0c0.928,0.929,0.928,2.439,0,3.367l-3.058,3.058c-0.931,0.931-2.444,0.923-3.367,0
		c-0.215-0.215-0.401-0.483-0.516-0.746l-1.595,1.595c0.167,0.254,0.341,0.473,0.565,0.697c0.577,0.577,1.312,1.007,2.157,1.21
		c1.095,0.264,2.268,0.118,3.276-0.438c0.368-0.203,0.714-0.46,1.026-0.772l3.058-3.058c1.784-1.783,1.784-4.675,0-6.459
		C17.902,2.684,15.01,2.684,13.227,4.467 M8.371,9.323c0.312-0.312,0.658-0.569,1.026-0.772c2.051-1.13,4.681-0.529,5.999,1.47
		l-1.595,1.595c-0.458-1.044-1.593-1.638-2.724-1.385c-0.425,0.095-0.829,0.308-1.16,0.638l-3.058,3.058
		c-0.928,0.928-0.928,2.439,0,3.367c0.929,0.928,2.439,0.928,3.367,0l0.943-0.943c0.857,0.34,1.777,0.476,2.684,0.408l-2.081,2.081
		c-1.783,1.783-4.675,1.783-6.459,0c-1.783-1.784-1.783-4.676,0-6.459L8.371,9.323z"/>
</g>
</svg>
