<?xml version="1.0" encoding="utf-8"?>
<!-- Generator: Adobe Illustrator 17.0.2, SVG Export Plug-In . SVG Version: 6.00 Build 0)  -->
<!DOCTYPE svg PUBLIC "-//W3C//DTD SVG 1.0//EN" "http://www.w3.org/TR/2001/REC-SVG-20010904/DTD/svg10.dtd">
<svg version="1.0" id="standardized_icons" xmlns="http://www.w3.org/2000/svg" xmlns:xlink="http://www.w3.org/1999/xlink" x="0px"
	 y="0px" width="24px" height="24px" viewBox="0 0 24 24" enable-background="new 0 0 24 24" xml:space="preserve">
<g id="pdf">
	<rect y="0" fill="#FFFFFF" width="24" height="16.936"/>
	<path fill="#ED2024" d="M5.979,13.034"/>
	<path fill="#ED2024" d="M18.136,10.796c-0.127,0-0.253,0-0.38,0c-0.145,0-0.29,0-0.434,0c-0.235,0-0.471,0-0.706,0
		c-0.658,0.029-1.315,0.059-1.973,0.088c-0.075,0.003-0.14-0.023-0.203-0.064c-1.645-1.042-3.131-2.258-4.255-3.874
		c-0.103-0.146-0.155-0.29-0.152-0.472c0.014-0.975-0.006-1.95-0.099-2.922C9.866,2.85,9.752,2.157,9.358,1.545
		C9.034,1.041,8.561,0.91,7.947,1.095C7.533,1.287,7.321,1.619,7.271,2.064C7.184,2.207,7.204,2.358,7.232,2.511
		c0.106,0.593,0.337,1.142,0.596,1.68C8.244,5.056,8.751,5.869,9.261,6.68c0.071,0.114,0.142,0.225,0.138,0.374
		c-0.038,1.297-0.312,2.54-0.826,3.733c-0.12,0.279-0.358,0.838-0.358,0.838s-0.101,0.169-0.191,0.32s-0.213,0.276-0.471,0.451
		c-0.257,0.175-0.68,0.307-0.924,0.374l-1.541,0.658c-0.104,0.039-0.283,0.165-0.283,0.165s-0.222,0.189-0.326,0.291
		c-0.046,0.096-0.104,0.092-0.139,0.287c-0.069,0.399,0.014,0.67,0.303,0.924c0.278,0.245,0.595,0.309,0.948,0.28
		c0.264,0.01,0.377-0.088,0.554-0.172c0.175-0.128,0.354-0.249,0.51-0.4c0.248-0.23,0.442-0.505,0.657-0.764
		c0.14-0.159,0.237-0.349,0.379-0.506c0.16-0.206,0.287-0.437,0.455-0.638c0.224-0.169,0.492-0.235,0.752-0.317
		c1.582-0.564,3.209-0.92,4.886-1.041c0.376-0.027,0.734-0.001,1.071,0.202c0.215,0.13,0.432,0.221,0.685,0.324
		c0.284,0.112,0.515,0.2,0.785,0.282c0.236,0.07,0.472,0.14,0.706,0.218c0.203,0.062,0.409,0.108,0.614,0.162
		c0.328,0.077,0.655,0.165,0.988,0.217c0.247,0.03,0.457,0.084,0.672,0.109c0.27,0.01,0.539,0.011,0.809-0.003
		c0.118-0.011,0.234-0.033,0.348-0.06c0.18-0.042,0.298-0.069,0.499-0.229c0.354-0.274,0.599-0.698,0.464-1.079
		c-0.135-0.381-0.415-0.435-0.415-0.435c-0.205-0.121-0.429-0.198-0.652-0.278c-0.179-0.051-0.323-0.102-0.649-0.113L18.136,10.796z
		"/>
	<rect y="16.936" fill="#EE2424" width="24" height="7.064"/>
	<path fill="#F6F6F6" d="M20.036,0.489c0.114-0.104,0.254-0.033,0.38-0.054C20.302,0.539,20.162,0.468,20.036,0.489z"/>
	<path fill="#FFFFFF" d="M9.99,7.606c1.026,1.334,2.235,2.378,3.635,3.325c-1.751,0.126-3.371,0.517-5.003,1.076
		C9.401,10.629,9.835,9.193,9.99,7.606z"/>
	<path fill="#FFFFFF" d="M9.442,5.812c-0.636-1.108-1.365-2.147-1.595-3.42C7.748,1.846,7.974,1.55,8.445,1.566
		C8.666,1.573,8.809,1.69,8.919,1.873C9.216,2.366,9.3,2.92,9.38,3.473c0.036,0.25,0.055,0.503,0.06,0.756
		C9.448,4.742,9.442,5.255,9.442,5.812z"/>
	<path fill="#FFFFFF" d="M20.646,11.676c-0.236-0.138-0.502-0.19-0.773-0.214c-0.346-0.01-0.681-0.135-1.031-0.104
		c-0.218,0-0.435-0.001-0.653-0.001c-0.525,0-1.05,0-1.574,0.001c-0.232,0.04-0.466,0.006-0.699,0.02
		c-0.06,0.004-0.15-0.043-0.167,0.071c0.608,0.27,1.236,0.477,1.889,0.609c0.015,0.007,0.029,0.012,0.044,0.016
		c0.233,0.085,0.471,0.141,0.721,0.146c0.336,0.111,0.684,0.152,1.036,0.163c0.404,0.075,0.808,0.09,1.186-0.1
		C20.952,12.119,20.96,11.86,20.646,11.676z"/>
	<path fill="#FFFFFF" d="M5.43,13.962c-0.186,0.073-0.342,0.192-0.479,0.333c-0.123,0.126-0.12,0.242,0.036,0.355
		c0.29,0.209,0.568,0.203,0.935-0.042c0.549-0.343,0.859-0.894,1.224-1.408C6.559,13.43,5.958,13.615,5.43,13.962z"/>
	<path fill="#FBF6F6" d="M16.614,11.358c-0.179,0.091-0.37,0.024-0.554,0.046c-0.104,0.012-0.217-0.035-0.311,0.045
		c0.025-0.073,0.025-0.075,0.058-0.075C16.076,11.368,16.345,11.363,16.614,11.358z"/>
	<rect y="16.833" fill="#5D5D5D" width="24" height="0.32"/>
	<text transform="matrix(0.9091 0 0 1 7.2759 22.2896)" fill="#5D5D5D" font-family="'HelveticaNeue-Bold'" font-size="5.2561">PDF</text>
	<text transform="matrix(0.9091 0 0 1 7.2759 22.4522)" fill="#FFFFFF" font-family="'HelveticaNeue-Bold'" font-size="5.2561">PDF</text>
</g>
</svg>
